<svg width="178" height="49" viewBox="0 0 178 49" fill="none" xmlns="http://www.w3.org/2000/svg">
<path d="M177.425 23.1574L170.879 14.6794C170.356 14.0019 169.549 13.6052 168.693 13.6052H140.465H131.305H106.744C105.888 13.6052 105.082 14.0019 104.559 14.6794L98.0122 23.1574C97.2084 24.198 97.2512 25.6629 98.1192 26.6548L104.562 34.0188C105.085 34.617 105.843 34.9618 106.64 34.9618H131.305H140.465H168.797C169.595 34.9618 170.353 34.617 170.876 34.0188L177.318 26.6548C178.186 25.6629 178.229 24.198 177.425 23.1574Z" fill="#F673AD"/>
<path d="M110.971 27.9793H113.346V23.1787H111.216V22.196H114.413V27.9793H116.625V28.9619H110.971V27.9793ZM112.909 20.1788C112.909 19.9163 113.004 19.6905 113.19 19.5043C113.377 19.3182 113.603 19.2236 113.866 19.2236C114.128 19.2236 114.355 19.3182 114.541 19.5043C114.727 19.6905 114.822 19.9163 114.822 20.1788C114.822 20.4413 114.727 20.6671 114.541 20.8533C114.355 21.0394 114.128 21.134 113.866 21.134C113.603 21.134 113.377 21.0394 113.19 20.8533C113.004 20.6671 112.909 20.4413 112.909 20.1788Z" fill="#FDD9E9"/>
<path d="M120.229 28.962H119.162V22.1992H120.229V23.3436H120.394C120.813 22.4525 121.54 22.0069 122.579 22.0069C123.362 22.0069 123.985 22.251 124.45 22.7363C124.914 23.2215 125.146 23.9509 125.146 24.9244V28.962H124.08V25.1442C124.08 24.4362 123.921 23.9021 123.603 23.5481C123.285 23.1941 122.851 23.017 122.307 23.017C121.659 23.017 121.152 23.2368 120.785 23.6793C120.415 24.1218 120.232 24.7078 120.232 25.4463V28.962H120.229Z" fill="#FDD9E9"/>
<path d="M139.487 26.5602C139.413 26.9325 139.288 27.2774 139.111 27.5978C138.934 27.9152 138.707 28.1899 138.435 28.4218C138.163 28.6538 137.842 28.8338 137.479 28.959C137.115 29.0871 136.709 29.1512 136.262 29.1512C135.789 29.1512 135.339 29.0749 134.918 28.9193C134.493 28.7636 134.123 28.5409 133.805 28.2448C133.487 27.9488 133.233 27.5887 133.047 27.1614C132.861 26.7342 132.766 26.2428 132.766 25.6874V25.5226C132.766 24.9763 132.861 24.485 133.047 24.0486C133.233 23.6122 133.487 23.2429 133.805 22.9438C134.123 22.6447 134.496 22.4128 134.918 22.248C135.342 22.0832 135.789 22.0038 136.262 22.0038C136.69 22.0038 137.088 22.0679 137.451 22.1961C137.815 22.3243 138.136 22.5043 138.414 22.7332C138.692 22.9652 138.918 23.2398 139.096 23.5572C139.273 23.8746 139.395 24.2195 139.456 24.5948L138.39 24.839C138.362 24.604 138.295 24.3721 138.191 24.1493C138.087 23.9265 137.946 23.7312 137.766 23.5633C137.586 23.3955 137.372 23.2612 137.118 23.1605C136.864 23.0598 136.568 23.0109 136.232 23.0109C135.905 23.0109 135.596 23.072 135.309 23.1941C135.021 23.3161 134.771 23.4901 134.551 23.7129C134.334 23.9357 134.163 24.2012 134.037 24.5094C133.915 24.8176 133.854 25.1564 133.854 25.5196V25.6843C133.854 26.0658 133.915 26.4107 134.037 26.7128C134.16 27.018 134.331 27.2744 134.551 27.4819C134.771 27.6925 135.024 27.8512 135.315 27.9671C135.605 28.08 135.92 28.138 136.256 28.138C136.592 28.138 136.886 28.0861 137.136 27.9824C137.387 27.8786 137.601 27.7413 137.778 27.5734C137.956 27.4056 138.096 27.2133 138.203 26.9936C138.307 26.7739 138.377 26.548 138.414 26.313L139.487 26.5602Z" fill="#FDD9E9"/>
<path d="M147.898 25.6599C147.898 26.2245 147.803 26.722 147.617 27.1523C147.43 27.5856 147.183 27.9488 146.871 28.2418C146.562 28.5378 146.199 28.7637 145.786 28.9162C145.37 29.0719 144.942 29.1482 144.496 29.1482C144.041 29.1482 143.61 29.0719 143.2 28.9162C142.791 28.7606 142.43 28.5378 142.121 28.2418C141.813 27.9458 141.562 27.5826 141.376 27.1523C141.189 26.7189 141.094 26.2215 141.094 25.6599V25.4982C141.094 24.9428 141.186 24.4514 141.376 24.0181C141.562 23.5878 141.813 23.2215 142.128 22.9194C142.442 22.6203 142.803 22.3914 143.213 22.2388C143.622 22.0832 144.05 22.0069 144.496 22.0069C144.942 22.0069 145.37 22.0832 145.78 22.2388C146.189 22.3945 146.55 22.6203 146.865 22.9194C147.18 23.2185 147.43 23.5847 147.617 24.0181C147.803 24.4514 147.898 24.9428 147.898 25.4982V25.6599ZM144.499 28.1411C144.826 28.1411 145.129 28.0831 145.407 27.9702C145.685 27.8572 145.927 27.6894 146.137 27.4727C146.345 27.253 146.51 26.9936 146.63 26.6884C146.749 26.3832 146.807 26.0414 146.807 25.6599V25.4982C146.807 25.135 146.749 24.7993 146.63 24.4972C146.51 24.192 146.348 23.9326 146.137 23.7129C145.927 23.4931 145.682 23.3253 145.401 23.2002C145.12 23.0781 144.817 23.0171 144.499 23.0171C144.181 23.0171 143.879 23.0781 143.598 23.2002C143.316 23.3222 143.069 23.4931 142.861 23.7129C142.65 23.9326 142.488 24.192 142.369 24.4972C142.25 24.8024 142.192 25.135 142.192 25.4982V25.663C142.192 26.0445 142.25 26.3893 142.369 26.6914C142.488 26.9966 142.65 27.256 142.861 27.4758C143.069 27.6955 143.313 27.8603 143.592 27.9732C143.867 28.0861 144.169 28.1411 144.499 28.1411Z" fill="#FDD9E9"/>
<path d="M155.111 27.9244H154.946C154.836 28.135 154.698 28.315 154.53 28.4707C154.362 28.6263 154.179 28.7514 153.983 28.8521C153.788 28.9528 153.58 29.0261 153.363 29.078C153.143 29.1268 152.935 29.1543 152.733 29.1543C152.278 29.1543 151.853 29.078 151.462 28.9223C151.07 28.7667 150.725 28.5439 150.432 28.254C150.135 27.9641 149.903 27.6009 149.735 27.1706C149.567 26.7403 149.481 26.2459 149.481 25.6904V25.4707C149.481 24.9244 149.567 24.4361 149.741 24.0058C149.915 23.5725 150.147 23.2093 150.438 22.9133C150.728 22.6173 151.07 22.3914 151.462 22.2388C151.853 22.0832 152.269 22.0069 152.706 22.0069C153.17 22.0069 153.604 22.1107 154.011 22.3151C154.417 22.5196 154.729 22.837 154.946 23.2642H155.111V19.4189H156.178V28.9651H155.111V27.9244ZM152.843 28.1411C153.161 28.1411 153.457 28.0831 153.73 27.9641C154.002 27.845 154.243 27.6772 154.448 27.4605C154.653 27.2408 154.815 26.9814 154.934 26.6762C155.053 26.371 155.111 26.0323 155.111 25.6599V25.4982C155.111 25.135 155.053 24.7993 154.934 24.4972C154.815 24.192 154.653 23.9326 154.448 23.7129C154.243 23.4931 154.002 23.3253 153.723 23.2001C153.445 23.0781 153.152 23.017 152.843 23.017C152.525 23.017 152.226 23.075 151.948 23.1941C151.67 23.3131 151.428 23.4809 151.223 23.6976C151.019 23.9173 150.86 24.1737 150.747 24.4758C150.633 24.7749 150.575 25.1075 150.575 25.4707V25.6904C150.575 26.0719 150.633 26.4137 150.747 26.7128C150.86 27.0119 151.019 27.2682 151.223 27.4819C151.428 27.6955 151.666 27.8603 151.942 27.9732C152.214 28.0861 152.516 28.1411 152.843 28.1411Z" fill="#FDD9E9"/>
<path d="M159.002 25.9071C159.029 26.5816 159.237 27.1217 159.631 27.5307C160.023 27.9396 160.57 28.1441 161.27 28.1441C161.587 28.1441 161.866 28.1075 162.104 28.0342C162.339 27.961 162.544 27.8603 162.712 27.7352C162.88 27.607 163.018 27.4605 163.122 27.2927C163.226 27.1248 163.311 26.9447 163.375 26.7555L164.387 27.0271C164.195 27.6558 163.843 28.1655 163.33 28.5622C162.816 28.9589 162.122 29.1543 161.248 29.1543C160.765 29.1543 160.322 29.0688 159.916 28.901C159.509 28.7331 159.161 28.4951 158.87 28.1838C158.58 27.8755 158.351 27.5063 158.189 27.079C158.024 26.6518 157.944 26.1787 157.944 25.6599V25.3334C157.944 24.8604 158.03 24.4209 158.198 24.0119C158.366 23.603 158.601 23.249 158.901 22.956C159.2 22.66 159.555 22.4281 159.958 22.2602C160.365 22.0924 160.802 22.0069 161.276 22.0069C161.832 22.0069 162.312 22.1107 162.715 22.3151C163.122 22.5196 163.452 22.7729 163.712 23.072C163.971 23.3711 164.161 23.6976 164.286 24.0547C164.409 24.4087 164.47 24.7352 164.47 25.0374V25.9102H159.002V25.9071ZM161.27 23.014C160.97 23.014 160.689 23.0628 160.429 23.1574C160.169 23.252 159.943 23.3863 159.748 23.5603C159.552 23.7342 159.393 23.9357 159.271 24.1676C159.149 24.3995 159.069 24.6528 159.032 24.9244H163.403C163.385 24.6345 163.314 24.369 163.192 24.134C163.07 23.899 162.911 23.6976 162.715 23.5328C162.52 23.368 162.297 23.2429 162.046 23.1513C161.792 23.0598 161.532 23.014 161.27 23.014Z" fill="#FDD9E9"/>
<path d="M0.574951 1.43671H19.3972C26.3545 1.43671 31.7097 3.33596 35.4782 7.13953C39.3078 10.8974 41.22 16.5799 41.22 24.182C41.22 31.784 39.3078 37.4868 35.4782 41.2904C31.7148 45.0483 26.3545 46.9272 19.3972 46.9272H0.574951V1.43671ZM19.3972 38.7665C23.2878 38.7665 26.2273 37.5935 28.2667 35.2524C30.3112 32.8657 31.3283 29.5039 31.3283 25.1722V23.1815C31.3283 18.8498 30.3061 15.5135 28.2667 13.1673C26.2273 10.7806 23.2878 9.58722 19.3972 9.58722H10.2073V38.7615H19.3972V38.7665Z" fill="white"/>
<path d="M66.2318 48.0139C62.7226 48.0139 59.5339 47.4807 56.5943 46.4244C53.7209 45.3174 51.4272 43.7076 49.7032 41.5849C47.9791 39.4623 47.0891 36.8978 47.0891 33.8915L47.1552 32.434H56.9198L56.8537 33.4953C56.8537 35.4403 57.7488 36.9892 59.4677 38.1368C61.1918 39.2845 63.6177 39.8583 66.6793 39.8583C69.9952 39.8583 72.3601 39.4369 73.8247 38.599C75.2945 37.7154 75.9963 36.5423 75.9963 35.0848C75.9963 33.8051 75.5488 32.7438 74.5266 31.9008C73.6315 31.0172 72.4211 30.3316 70.9513 29.8441C69.5477 29.3109 67.5693 28.6965 65.0163 27.9855C61.441 26.9699 58.5727 25.9949 56.34 25.0656C54.1074 24.1362 52.2562 22.7651 50.6593 20.9522C49.0624 19.0987 48.2334 16.6662 48.2334 13.6599C48.2334 9.50595 49.9575 6.34225 53.2733 4.17894C56.6554 2.01055 61.1206 0.928894 66.6742 0.928894C71.9685 0.928894 76.2455 2.05626 79.5614 4.31097C82.9434 6.51999 84.6014 9.85635 84.6014 14.3252V15.1224H75.0962V14.5283C75.0962 12.8474 74.2672 11.522 72.7364 10.547C71.2666 9.57705 69.1611 9.08954 66.5471 9.08954C63.8059 9.08954 61.6343 9.46535 60.1035 10.2169C58.6998 10.9685 57.9319 12.0095 57.9319 13.3349C57.9319 14.3506 58.3794 15.2342 59.2745 15.9857C60.1696 16.6916 61.2528 17.2909 62.5904 17.7784C63.933 18.2202 65.7791 18.7737 68.205 19.4338C71.8413 20.4038 74.8419 21.3788 77.1406 22.3538C79.5004 23.2831 81.4787 24.6745 83.2028 26.5332C84.8608 28.3918 85.6897 30.8192 85.6897 33.8254C85.6897 38.6904 83.9657 42.2705 80.4565 44.5658C77.0135 46.8663 72.2939 48.0139 66.2318 48.0139Z" fill="white"/>
</svg>
